<svg width="64" height="64" viewBox="0 0 64 64" fill="none" xmlns="http://www.w3.org/2000/svg">
<g clip-path="url(#clip0_2042_114)">
<g filter="url(#filter0_f_2042_114)">
<ellipse cx="31.5002" cy="59.7497" rx="8.16667" ry="2.91667" fill="black" fill-opacity="0.2"/>
</g>
<g filter="url(#filter1_d_2042_114)">
<path fill-rule="evenodd" clip-rule="evenodd" d="M31.5 2C45.031 2 56 12.969 56 26.5C56 36.8746 49.5515 45.7432 40.4441 49.3161L32.8954 59.6341C32.7381 59.8501 32.5291 60.0264 32.2863 60.1481C32.0434 60.2698 31.7737 60.3333 31.5 60.3333C31.2263 60.3333 30.9566 60.2698 30.7137 60.1481C30.4709 60.0264 30.2619 59.8501 30.1046 59.6341L22.5559 49.3161C13.4485 45.7432 7 36.8746 7 26.5C7 12.969 17.969 2 31.5 2Z" fill="white"/>
</g>
<path d="M51.3332 26.5003C51.3332 15.5467 42.4535 6.66699 31.4998 6.66699C20.5462 6.66699 11.6665 15.5467 11.6665 26.5003C11.6665 37.454 20.5462 46.3337 31.4998 46.3337C42.4535 46.3337 51.3332 37.454 51.3332 26.5003Z" fill="#31471F"/>
<path d="M19 23L38 20L37.5 22L35.5 33L35 35L19 32.76V23Z" fill="#ECC94E"/>
<path d="M19 23L38 20L37.5 22L35.5 33L35 35L19 32.76V23Z" fill="#ECC94E"/>
<path d="M38 20L45.5 22L43 33L35.5 35L38 20Z" fill="#A17608"/>
<path d="M38 20L45.5 22L43 33L35.5 35L38 20Z" fill="#A17608"/>
<line x1="19.1718" y1="22.9526" x2="19.2747" y2="32.5912" stroke="#384527" stroke-linecap="round"/>
<line x1="38.0787" y1="20.0679" x2="19.2618" y2="22.8551" stroke="#384527" stroke-linecap="round"/>
<line x1="35.2071" y1="35.2491" x2="38.0353" y2="20.2256" stroke="#384527" stroke-linecap="round"/>
<line x1="19.3536" y1="32.6834" x2="35.1928" y2="35.2595" stroke="#384527" stroke-linecap="round"/>
<line x1="38.0955" y1="20.1187" x2="45.508" y2="21.7442" stroke="#384527" stroke-linecap="round"/>
<line x1="35.7178" y1="35.2159" x2="43.0022" y2="33.158" stroke="#384527" stroke-linecap="round"/>
<line x1="43.2281" y1="32.975" x2="45.4848" y2="21.8613" stroke="#384527" stroke-linecap="round"/>
</g>
<defs>
<filter id="filter0_f_2042_114" x="21.3335" y="54.833" width="20.3335" height="9.83301" filterUnits="userSpaceOnUse" color-interpolation-filters="sRGB">
<feFlood flood-opacity="0" result="BackgroundImageFix"/>
<feBlend mode="normal" in="SourceGraphic" in2="BackgroundImageFix" result="shape"/>
<feGaussianBlur stdDeviation="1" result="effect1_foregroundBlur_2042_114"/>
</filter>
<filter id="filter1_d_2042_114" x="2" y="-2" width="59" height="68.333" filterUnits="userSpaceOnUse" color-interpolation-filters="sRGB">
<feFlood flood-opacity="0" result="BackgroundImageFix"/>
<feColorMatrix in="SourceAlpha" type="matrix" values="0 0 0 0 0 0 0 0 0 0 0 0 0 0 0 0 0 0 127 0" result="hardAlpha"/>
<feOffset dy="1"/>
<feGaussianBlur stdDeviation="2.5"/>
<feComposite in2="hardAlpha" operator="out"/>
<feColorMatrix type="matrix" values="0 0 0 0 0 0 0 0 0 0 0 0 0 0 0 0 0 0 0.1 0"/>
<feBlend mode="normal" in2="BackgroundImageFix" result="effect1_dropShadow_2042_114"/>
<feBlend mode="normal" in="SourceGraphic" in2="effect1_dropShadow_2042_114" result="shape"/>
</filter>
<clipPath id="clip0_2042_114">
<rect width="64" height="64" fill="white"/>
</clipPath>
</defs>
</svg>
